<mxfile host="app.diagrams.net" modified="2024-02-19T06:16:13.891Z" agent="Mozilla/5.0 (Windows NT 10.0; Win64; x64) AppleWebKit/537.36 (KHTML, like Gecko) Chrome/121.0.0.0 Safari/537.36" version="23.1.5" etag="_joLsKI44_it2Pg5tHrS" type="github">
  <diagram name="페이지-1" id="aqYgm_9vJJ69IgrTiLsw">
    <mxGraphModel>
      <root>
        <mxCell id="0" />
        <mxCell id="1" parent="0" />
      </root>
    </mxGraphModel>
  </diagram>
</mxfile>
